<svg class="main-svg" xmlns="http://www.w3.org/2000/svg" xmlns:xlink="http://www.w3.org/1999/xlink" width="1600" height="720" style="" viewBox="0 0 1600 720"><rect x="0" y="0" width="1600" height="720" style="fill: rgb(255, 255, 255); fill-opacity: 1;"/><defs id="defs-5c4d50"><g class="clips"><clipPath id="clip5c4d50xyplot" class="plotclip"><rect width="1440" height="540"/></clipPath><clipPath class="axesclip" id="clip5c4d50x"><rect x="80" y="0" width="1440" height="720"/></clipPath><clipPath class="axesclip" id="clip5c4d50y"><rect x="0" y="100" width="1600" height="540"/></clipPath><clipPath class="axesclip" id="clip5c4d50xy"><rect x="80" y="100" width="1440" height="540"/></clipPath></g><g class="gradients"/><g class="patterns"/></defs><g class="bglayer"><rect class="bg" x="80" y="100" width="1440" height="540" style="fill: rgb(229, 236, 246); fill-opacity: 1; stroke-width: 0;"/></g><g class="layer-below"><g class="imagelayer"/><g class="shapelayer"/></g><g class="cartesianlayer"><g class="subplot xy"><g class="layer-subplot"><g class="shapelayer"/><g class="imagelayer"/></g><g class="minor-gridlayer"><g class="x"/><g class="y"/></g><g class="gridlayer"><g class="x"><path class="xgrid crisp" transform="translate(191.07999999999998,0)" d="M0,100v540" style="stroke: rgb(255, 255, 255); stroke-opacity: 1; stroke-width: 1px;"/><path class="xgrid crisp" transform="translate(432.58,0)" d="M0,100v540" style="stroke: rgb(255, 255, 255); stroke-opacity: 1; stroke-width: 1px;"/><path class="xgrid crisp" transform="translate(674.08,0)" d="M0,100v540" style="stroke: rgb(255, 255, 255); stroke-opacity: 1; stroke-width: 1px;"/><path class="xgrid crisp" transform="translate(915.58,0)" d="M0,100v540" style="stroke: rgb(255, 255, 255); stroke-opacity: 1; stroke-width: 1px;"/><path class="xgrid crisp" transform="translate(1157.09,0)" d="M0,100v540" style="stroke: rgb(255, 255, 255); stroke-opacity: 1; stroke-width: 1px;"/><path class="xgrid crisp" transform="translate(1398.59,0)" d="M0,100v540" style="stroke: rgb(255, 255, 255); stroke-opacity: 1; stroke-width: 1px;"/></g><g class="y"><path class="ygrid crisp" transform="translate(0,494.32)" d="M80,0h1440" style="stroke: rgb(255, 255, 255); stroke-opacity: 1; stroke-width: 1px;"/><path class="ygrid crisp" transform="translate(0,406.99)" d="M80,0h1440" style="stroke: rgb(255, 255, 255); stroke-opacity: 1; stroke-width: 1px;"/><path class="ygrid crisp" transform="translate(0,319.65)" d="M80,0h1440" style="stroke: rgb(255, 255, 255); stroke-opacity: 1; stroke-width: 1px;"/><path class="ygrid crisp" transform="translate(0,232.32)" d="M80,0h1440" style="stroke: rgb(255, 255, 255); stroke-opacity: 1; stroke-width: 1px;"/><path class="ygrid crisp" transform="translate(0,144.98)" d="M80,0h1440" style="stroke: rgb(255, 255, 255); stroke-opacity: 1; stroke-width: 1px;"/></g></g><g class="zerolinelayer"><path class="yzl zl crisp" transform="translate(0,581.6600000000001)" d="M80,0h1440" style="stroke: rgb(255, 255, 255); stroke-opacity: 1; stroke-width: 2px;"/></g><path class="xlines-below"/><path class="ylines-below"/><g class="overlines-below"/><g class="xaxislayer-below"/><g class="yaxislayer-below"/><g class="overaxes-below"/><g class="plot" transform="translate(80,100)" clip-path="url(#clip5c4d50xyplot)"><g class="scatterlayer mlayer"><g class="trace scatter tracecdbf67" style="stroke-miterlimit: 2; opacity: 1;"><g class="fills"/><g class="errorbars"/><g class="lines"/><g class="points"><path class="point plotly-customdata" transform="translate(1360.5,378.6)" d="M6,0A6,6 0 1,1 0,-6A6,6 0 0,1 6,0Z" style="opacity: 1; stroke-width: 0px; fill: rgb(233, 140, 110); fill-opacity: 1;"/><path class="point plotly-customdata" transform="translate(1317.81,155.9)" d="M6,0A6,6 0 1,1 0,-6A6,6 0 0,1 6,0Z" style="opacity: 1; stroke-width: 0px; fill: rgb(8, 54, 105); fill-opacity: 1;"/><path class="point plotly-customdata" transform="translate(1309.01,437.12)" d="M6,0A6,6 0 1,1 0,-6A6,6 0 0,1 6,0Z" style="opacity: 1; stroke-width: 0px; fill: rgb(119, 5, 34); fill-opacity: 1;"/><path class="point plotly-customdata" transform="translate(1254.22,341.92)" d="M6,0A6,6 0 1,1 0,-6A6,6 0 0,1 6,0Z" style="opacity: 1; stroke-width: 0px; fill: rgb(163, 205, 227); fill-opacity: 1;"/><path class="point plotly-customdata" transform="translate(1189.55,282.53)" d="M6,0A6,6 0 1,1 0,-6A6,6 0 0,1 6,0Z" style="opacity: 1; stroke-width: 0px; fill: rgb(14, 65, 121); fill-opacity: 1;"/><path class="point plotly-customdata" transform="translate(1185.84,381.22)" d="M6,0A6,6 0 1,1 0,-6A6,6 0 0,1 6,0Z" style="opacity: 1; stroke-width: 0px; fill: rgb(250, 231, 219); fill-opacity: 1;"/><path class="point plotly-customdata" transform="translate(1185.74,351.53)" d="M6,0A6,6 0 1,1 0,-6A6,6 0 0,1 6,0Z" style="opacity: 1; stroke-width: 0px; fill: rgb(176, 212, 231); fill-opacity: 1;"/><path class="point plotly-customdata" transform="translate(1171.03,302.62)" d="M6,0A6,6 0 1,1 0,-6A6,6 0 0,1 6,0Z" style="opacity: 1; stroke-width: 0px; fill: rgb(35, 104, 173); fill-opacity: 1;"/><path class="point plotly-customdata" transform="translate(1140.73,327.95)" d="M6,0A6,6 0 1,1 0,-6A6,6 0 0,1 6,0Z" style="opacity: 1; stroke-width: 0px; fill: rgb(42, 114, 178); fill-opacity: 1;"/><path class="point plotly-customdata" transform="translate(1134.03,431)" d="M6,0A6,6 0 1,1 0,-6A6,6 0 0,1 6,0Z" style="opacity: 1; stroke-width: 0px; fill: rgb(184, 35, 48); fill-opacity: 1;"/><path class="point plotly-customdata" transform="translate(1115.56,344.54)" d="M6,0A6,6 0 1,1 0,-6A6,6 0 0,1 6,0Z" style="opacity: 1; stroke-width: 0px; fill: rgb(100, 168, 206); fill-opacity: 1;"/><path class="point plotly-customdata" transform="translate(1113.43,463.32)" d="M6,0A6,6 0 1,1 0,-6A6,6 0 0,1 6,0Z" style="opacity: 1; stroke-width: 0px; fill: rgb(111, 3, 32); fill-opacity: 1;"/><path class="point plotly-customdata" transform="translate(1096.77,300)" d="M6,0A6,6 0 1,1 0,-6A6,6 0 0,1 6,0Z" style="opacity: 1; stroke-width: 0px; fill: rgb(20, 76, 136); fill-opacity: 1;"/><path class="point plotly-customdata" transform="translate(1089.27,313.1)" d="M6,0A6,6 0 1,1 0,-6A6,6 0 0,1 6,0Z" style="opacity: 1; stroke-width: 0px; fill: rgb(32, 99, 168); fill-opacity: 1;"/><path class="point plotly-customdata" transform="translate(1087.89,337.56)" d="M6,0A6,6 0 1,1 0,-6A6,6 0 0,1 6,0Z" style="opacity: 1; stroke-width: 0px; fill: rgb(49, 123, 183); fill-opacity: 1;"/><path class="point plotly-customdata" transform="translate(1085.16,456.33)" d="M6,0A6,6 0 1,1 0,-6A6,6 0 0,1 6,0Z" style="opacity: 1; stroke-width: 0px; fill: rgb(127, 8, 35); fill-opacity: 1;"/><path class="point plotly-customdata" transform="translate(1062.86,347.16)" d="M6,0A6,6 0 1,1 0,-6A6,6 0 0,1 6,0Z" style="opacity: 1; stroke-width: 0px; fill: rgb(60, 138, 190); fill-opacity: 1;"/><path class="point plotly-customdata" transform="translate(1060.97,410.92)" d="M6,0A6,6 0 1,1 0,-6A6,6 0 0,1 6,0Z" style="opacity: 1; stroke-width: 0px; fill: rgb(236, 147, 116); fill-opacity: 1;"/><path class="point plotly-customdata" transform="translate(1060.96,447.6)" d="M6,0A6,6 0 1,1 0,-6A6,6 0 0,1 6,0Z" style="opacity: 1; stroke-width: 0px; fill: rgb(158, 18, 40); fill-opacity: 1;"/><path class="point plotly-customdata" transform="translate(1056.43,450.22)" d="M6,0A6,6 0 1,1 0,-6A6,6 0 0,1 6,0Z" style="opacity: 1; stroke-width: 0px; fill: rgb(150, 15, 39); fill-opacity: 1;"/><path class="point plotly-customdata" transform="translate(1050.28,332.32)" d="M6,0A6,6 0 1,1 0,-6A6,6 0 0,1 6,0Z" style="opacity: 1; stroke-width: 0px; fill: rgb(38, 109, 176); fill-opacity: 1;"/><path class="point plotly-customdata" transform="translate(1024.12,458.95)" d="M6,0A6,6 0 1,1 0,-6A6,6 0 0,1 6,0Z" style="opacity: 1; stroke-width: 0px; fill: rgb(135, 10, 36); fill-opacity: 1;"/><path class="point plotly-customdata" transform="translate(1020.35,481.66)" d="M6,0A6,6 0 1,1 0,-6A6,6 0 0,1 6,0Z" style="opacity: 1; stroke-width: 0px; fill: rgb(103, 0, 31); fill-opacity: 1;"/><path class="point plotly-customdata" transform="translate(1013.5,429.26)" d="M6,0A6,6 0 1,1 0,-6A6,6 0 0,1 6,0Z" style="opacity: 1; stroke-width: 0px; fill: rgb(223, 118, 94); fill-opacity: 1;"/><path class="point plotly-customdata" transform="translate(1009.11,34.5)" d="M6,0A6,6 0 1,1 0,-6A6,6 0 0,1 6,0Z" style="opacity: 1; stroke-width: 0px; fill: rgb(5, 48, 97); fill-opacity: 1;"/><path class="point plotly-customdata" transform="translate(959.51,443.23)" d="M6,0A6,6 0 1,1 0,-6A6,6 0 0,1 6,0Z" style="opacity: 1; stroke-width: 0px; fill: rgb(210, 88, 73); fill-opacity: 1;"/><path class="point plotly-customdata" transform="translate(954.28,417.03)" d="M6,0A6,6 0 1,1 0,-6A6,6 0 0,1 6,0Z" style="opacity: 1; stroke-width: 0px; fill: rgb(249, 196, 170); fill-opacity: 1;"/><path class="point plotly-customdata" transform="translate(952.08,444.11)" d="M6,0A6,6 0 1,1 0,-6A6,6 0 0,1 6,0Z" style="opacity: 1; stroke-width: 0px; fill: rgb(214, 96, 77); fill-opacity: 1;"/><path class="point plotly-customdata" transform="translate(949.68,412.66)" d="M6,0A6,6 0 1,1 0,-6A6,6 0 0,1 6,0Z" style="opacity: 1; stroke-width: 0px; fill: rgb(252, 225, 209); fill-opacity: 1;"/><path class="point plotly-customdata" transform="translate(942.97,400.44)" d="M6,0A6,6 0 1,1 0,-6A6,6 0 0,1 6,0Z" style="opacity: 1; stroke-width: 0px; fill: rgb(196, 222, 236); fill-opacity: 1;"/><path class="point plotly-customdata" transform="translate(934.73,463.32)" d="M6,0A6,6 0 1,1 0,-6A6,6 0 0,1 6,0Z" style="opacity: 1; stroke-width: 0px; fill: rgb(166, 20, 41); fill-opacity: 1;"/><path class="point plotly-customdata" transform="translate(934.47,450.22)" d="M6,0A6,6 0 1,1 0,-6A6,6 0 0,1 6,0Z" style="opacity: 1; stroke-width: 0px; fill: rgb(195, 58, 59); fill-opacity: 1;"/><path class="point plotly-customdata" transform="translate(910.21,370.74)" d="M6,0A6,6 0 1,1 0,-6A6,6 0 0,1 6,0Z" style="opacity: 1; stroke-width: 0px; fill: rgb(92, 163, 204); fill-opacity: 1;"/><path class="point plotly-customdata" transform="translate(904.99,310.48)" d="M6,0A6,6 0 1,1 0,-6A6,6 0 0,1 6,0Z" style="opacity: 1; stroke-width: 0px; fill: rgb(11, 59, 113); fill-opacity: 1;"/><path class="point plotly-customdata" transform="translate(882.89,475.55)" d="M6,0A6,6 0 1,1 0,-6A6,6 0 0,1 6,0Z" style="opacity: 1; stroke-width: 0px; fill: rgb(142, 13, 37); fill-opacity: 1;"/><path class="point plotly-customdata" transform="translate(879.86,332.32)" d="M6,0A6,6 0 1,1 0,-6A6,6 0 0,1 6,0Z" style="opacity: 1; stroke-width: 0px; fill: rgb(23, 82, 144); fill-opacity: 1;"/><path class="point plotly-customdata" transform="translate(857.96,445.85)" d="M6,0A6,6 0 1,1 0,-6A6,6 0 0,1 6,0Z" style="opacity: 1; stroke-width: 0px; fill: rgb(230, 132, 105); fill-opacity: 1;"/><path class="point plotly-customdata" transform="translate(854.33,437.99)" d="M6,0A6,6 0 1,1 0,-6A6,6 0 0,1 6,0Z" style="opacity: 1; stroke-width: 0px; fill: rgb(239, 154, 122); fill-opacity: 1;"/><path class="point plotly-customdata" transform="translate(842.7,379.48)" d="M6,0A6,6 0 1,1 0,-6A6,6 0 0,1 6,0Z" style="opacity: 1; stroke-width: 0px; fill: rgb(84, 158, 201); fill-opacity: 1;"/><path class="point plotly-customdata" transform="translate(825.96,463.32)" d="M6,0A6,6 0 1,1 0,-6A6,6 0 0,1 6,0Z" style="opacity: 1; stroke-width: 0px; fill: rgb(199, 66, 63); fill-opacity: 1;"/><path class="point plotly-customdata" transform="translate(822.19,345.42)" d="M6,0A6,6 0 1,1 0,-6A6,6 0 0,1 6,0Z" style="opacity: 1; stroke-width: 0px; fill: rgb(26, 88, 152); fill-opacity: 1;"/><path class="point plotly-customdata" transform="translate(818.22,457.21)" d="M6,0A6,6 0 1,1 0,-6A6,6 0 0,1 6,0Z" style="opacity: 1; stroke-width: 0px; fill: rgb(217, 103, 83); fill-opacity: 1;"/><path class="point plotly-customdata" transform="translate(809.75,456.33)" d="M6,0A6,6 0 1,1 0,-6A6,6 0 0,1 6,0Z" style="opacity: 1; stroke-width: 0px; fill: rgb(220, 111, 88); fill-opacity: 1;"/><path class="point plotly-customdata" transform="translate(793.55,481.66)" d="M6,0A6,6 0 1,1 0,-6A6,6 0 0,1 6,0Z" style="opacity: 1; stroke-width: 0px; fill: rgb(174, 23, 42); fill-opacity: 1;"/><path class="point plotly-customdata" transform="translate(775.68,338.43)" d="M6,0A6,6 0 1,1 0,-6A6,6 0 0,1 6,0Z" style="opacity: 1; stroke-width: 0px; fill: rgb(17, 71, 129); fill-opacity: 1;"/><path class="point plotly-customdata" transform="translate(773.6,435.37)" d="M6,0A6,6 0 1,1 0,-6A6,6 0 0,1 6,0Z" style="opacity: 1; stroke-width: 0px; fill: rgb(250, 234, 224); fill-opacity: 1;"/><path class="point plotly-customdata" transform="translate(759.97,436.24)" d="M6,0A6,6 0 1,1 0,-6A6,6 0 0,1 6,0Z" style="opacity: 1; stroke-width: 0px; fill: rgb(249, 240, 234); fill-opacity: 1;"/><path class="point plotly-customdata" transform="translate(758.26,481.66)" d="M6,0A6,6 0 1,1 0,-6A6,6 0 0,1 6,0Z" style="opacity: 1; stroke-width: 0px; fill: rgb(180, 28, 45); fill-opacity: 1;"/><path class="point plotly-customdata" transform="translate(737.8,451.09)" d="M6,0A6,6 0 1,1 0,-6A6,6 0 0,1 6,0Z" style="opacity: 1; stroke-width: 0px; fill: rgb(245, 174, 141); fill-opacity: 1;"/><path class="point plotly-customdata" transform="translate(737.65,435.37)" d="M6,0A6,6 0 1,1 0,-6A6,6 0 0,1 6,0Z" style="opacity: 1; stroke-width: 0px; fill: rgb(229, 238, 244); fill-opacity: 1;"/><path class="point plotly-customdata" transform="translate(735.36,481.66)" d="M6,0A6,6 0 1,1 0,-6A6,6 0 0,1 6,0Z" style="opacity: 1; stroke-width: 0px; fill: rgb(187, 43, 52); fill-opacity: 1;"/><path class="point plotly-customdata" transform="translate(731.13,357.64)" d="M6,0A6,6 0 1,1 0,-6A6,6 0 0,1 6,0Z" style="opacity: 1; stroke-width: 0px; fill: rgb(29, 93, 160); fill-opacity: 1;"/><path class="point plotly-customdata" transform="translate(728.67,473.8)" d="M6,0A6,6 0 1,1 0,-6A6,6 0 0,1 6,0Z" style="opacity: 1; stroke-width: 0px; fill: rgb(206, 81, 70); fill-opacity: 1;"/><path class="point plotly-customdata" transform="translate(724.89,480.79)" d="M6,0A6,6 0 1,1 0,-6A6,6 0 0,1 6,0Z" style="opacity: 1; stroke-width: 0px; fill: rgb(191, 51, 56); fill-opacity: 1;"/><path class="point plotly-customdata" transform="translate(693.92,479.04)" d="M6,0A6,6 0 1,1 0,-6A6,6 0 0,1 6,0Z" style="opacity: 1; stroke-width: 0px; fill: rgb(203, 73, 66); fill-opacity: 1;"/><path class="point plotly-customdata" transform="translate(678.19,444.98)" d="M6,0A6,6 0 1,1 0,-6A6,6 0 0,1 6,0Z" style="opacity: 1; stroke-width: 0px; fill: rgb(241, 244, 246); fill-opacity: 1;"/><path class="point plotly-customdata" transform="translate(666.1,472.93)" d="M6,0A6,6 0 1,1 0,-6A6,6 0 0,1 6,0Z" style="opacity: 1; stroke-width: 0px; fill: rgb(227, 125, 99); fill-opacity: 1;"/><path class="point plotly-customdata" transform="translate(630.45,455.46)" d="M6,0A6,6 0 1,1 0,-6A6,6 0 0,1 6,0Z" style="opacity: 1; stroke-width: 0px; fill: rgb(252, 213, 192); fill-opacity: 1;"/><path class="point plotly-customdata" transform="translate(620.93,465.94)" d="M6,0A6,6 0 1,1 0,-6A6,6 0 0,1 6,0Z" style="opacity: 1; stroke-width: 0px; fill: rgb(246, 179, 148); fill-opacity: 1;"/><path class="point plotly-customdata" transform="translate(602.89,410.92)" d="M6,0A6,6 0 1,1 0,-6A6,6 0 0,1 6,0Z" style="opacity: 1; stroke-width: 0px; fill: rgb(75, 152, 198); fill-opacity: 1;"/><path class="point plotly-customdata" transform="translate(595.75,464.19)" d="M6,0A6,6 0 1,1 0,-6A6,6 0 0,1 6,0Z" style="opacity: 1; stroke-width: 0px; fill: rgb(250, 202, 177); fill-opacity: 1;"/><path class="point plotly-customdata" transform="translate(587.87,430.13)" d="M6,0A6,6 0 1,1 0,-6A6,6 0 0,1 6,0Z" style="opacity: 1; stroke-width: 0px; fill: rgb(169, 209, 229); fill-opacity: 1;"/><path class="point plotly-customdata" transform="translate(573.47,444.11)" d="M6,0A6,6 0 1,1 0,-6A6,6 0 0,1 6,0Z" style="opacity: 1; stroke-width: 0px; fill: rgb(189, 219, 234); fill-opacity: 1;"/><path class="point plotly-customdata" transform="translate(567.42,475.55)" d="M6,0A6,6 0 1,1 0,-6A6,6 0 0,1 6,0Z" style="opacity: 1; stroke-width: 0px; fill: rgb(242, 161, 127); fill-opacity: 1;"/><path class="point plotly-customdata" transform="translate(561.33,452.84)" d="M6,0A6,6 0 1,1 0,-6A6,6 0 0,1 6,0Z" style="opacity: 1; stroke-width: 0px; fill: rgb(202, 226, 238); fill-opacity: 1;"/><path class="point plotly-customdata" transform="translate(557.94,461.57)" d="M6,0A6,6 0 1,1 0,-6A6,6 0 0,1 6,0Z" style="opacity: 1; stroke-width: 0px; fill: rgb(247, 246, 244); fill-opacity: 1;"/><path class="point plotly-customdata" transform="translate(540.96,466.81)" d="M6,0A6,6 0 1,1 0,-6A6,6 0 0,1 6,0Z" style="opacity: 1; stroke-width: 0px; fill: rgb(252, 222, 204); fill-opacity: 1;"/><path class="point plotly-customdata" transform="translate(513.17,465.94)" d="M6,0A6,6 0 1,1 0,-6A6,6 0 0,1 6,0Z" style="opacity: 1; stroke-width: 0px; fill: rgb(233, 240, 244); fill-opacity: 1;"/><path class="point plotly-customdata" transform="translate(512.65,478.17)" d="M6,0A6,6 0 1,1 0,-6A6,6 0 0,1 6,0Z" style="opacity: 1; stroke-width: 0px; fill: rgb(247, 185, 155); fill-opacity: 1;"/><path class="point plotly-customdata" transform="translate(509.53,481.66)" d="M6,0A6,6 0 1,1 0,-6A6,6 0 0,1 6,0Z" style="opacity: 1; stroke-width: 0px; fill: rgb(244, 168, 134); fill-opacity: 1;"/><path class="point plotly-customdata" transform="translate(502.88,474.67)" d="M6,0A6,6 0 1,1 0,-6A6,6 0 0,1 6,0Z" style="opacity: 1; stroke-width: 0px; fill: rgb(251, 208, 184); fill-opacity: 1;"/><path class="point plotly-customdata" transform="translate(493.56,471.18)" d="M6,0A6,6 0 1,1 0,-6A6,6 0 0,1 6,0Z" style="opacity: 1; stroke-width: 0px; fill: rgb(248, 243, 239); fill-opacity: 1;"/><path class="point plotly-customdata" transform="translate(485.3,473.8)" d="M6,0A6,6 0 1,1 0,-6A6,6 0 0,1 6,0Z" style="opacity: 1; stroke-width: 0px; fill: rgb(251, 228, 214); fill-opacity: 1;"/><path class="point plotly-customdata" transform="translate(478.2,481.66)" d="M6,0A6,6 0 1,1 0,-6A6,6 0 0,1 6,0Z" style="opacity: 1; stroke-width: 0px; fill: rgb(248, 191, 163); fill-opacity: 1;"/><path class="point plotly-customdata" transform="translate(471.53,438.86)" d="M6,0A6,6 0 1,1 0,-6A6,6 0 0,1 6,0Z" style="opacity: 1; stroke-width: 0px; fill: rgb(149, 199, 223); fill-opacity: 1;"/><path class="point plotly-customdata" transform="translate(451.21,479.04)" d="M6,0A6,6 0 1,1 0,-6A6,6 0 0,1 6,0Z" style="opacity: 1; stroke-width: 0px; fill: rgb(253, 219, 199); fill-opacity: 1;"/><path class="point plotly-customdata" transform="translate(449.64,477.29)" d="M6,0A6,6 0 1,1 0,-6A6,6 0 0,1 6,0Z" style="opacity: 1; stroke-width: 0px; fill: rgb(249, 237, 229); fill-opacity: 1;"/><path class="point plotly-customdata" transform="translate(443.69,473.8)" d="M6,0A6,6 0 1,1 0,-6A6,6 0 0,1 6,0Z" style="opacity: 1; stroke-width: 0px; fill: rgb(225, 237, 243); fill-opacity: 1;"/><path class="point plotly-customdata" transform="translate(442.26,469.43)" d="M6,0A6,6 0 1,1 0,-6A6,6 0 0,1 6,0Z" style="opacity: 1; stroke-width: 0px; fill: rgb(209, 229, 240); fill-opacity: 1;"/><path class="point plotly-customdata" transform="translate(432.38,474.67)" d="M6,0A6,6 0 1,1 0,-6A6,6 0 0,1 6,0Z" style="opacity: 1; stroke-width: 0px; fill: rgb(221, 235, 242); fill-opacity: 1;"/><path class="point plotly-customdata" transform="translate(429.15,477.29)" d="M6,0A6,6 0 1,1 0,-6A6,6 0 0,1 6,0Z" style="opacity: 1; stroke-width: 0px; fill: rgb(237, 242, 245); fill-opacity: 1;"/><path class="point plotly-customdata" transform="translate(422.84,479.04)" d="M6,0A6,6 0 1,1 0,-6A6,6 0 0,1 6,0Z" style="opacity: 1; stroke-width: 0px; fill: rgb(245, 246, 247); fill-opacity: 1;"/><path class="point plotly-customdata" transform="translate(410.54,477.29)" d="M6,0A6,6 0 1,1 0,-6A6,6 0 0,1 6,0Z" style="opacity: 1; stroke-width: 0px; fill: rgb(217, 233, 241); fill-opacity: 1;"/><path class="point plotly-customdata" transform="translate(393.94,437.12)" d="M6,0A6,6 0 1,1 0,-6A6,6 0 0,1 6,0Z" style="opacity: 1; stroke-width: 0px; fill: rgb(63, 142, 193); fill-opacity: 1;"/><path class="point plotly-customdata" transform="translate(386.95,436.24)" d="M6,0A6,6 0 1,1 0,-6A6,6 0 0,1 6,0Z" style="opacity: 1; stroke-width: 0px; fill: rgb(56, 133, 188); fill-opacity: 1;"/><path class="point plotly-customdata" transform="translate(377.45,479.91)" d="M6,0A6,6 0 1,1 0,-6A6,6 0 0,1 6,0Z" style="opacity: 1; stroke-width: 0px; fill: rgb(213, 231, 241); fill-opacity: 1;"/><path class="point plotly-customdata" transform="translate(328.96,475.55)" d="M6,0A6,6 0 1,1 0,-6A6,6 0 0,1 6,0Z" style="opacity: 1; stroke-width: 0px; fill: rgb(182, 216, 232); fill-opacity: 1;"/><path class="point plotly-customdata" transform="translate(305.8,439.74)" d="M6,0A6,6 0 1,1 0,-6A6,6 0 0,1 6,0Z" style="opacity: 1; stroke-width: 0px; fill: rgb(46, 119, 180); fill-opacity: 1;"/><path class="point plotly-customdata" transform="translate(286.29,465.94)" d="M6,0A6,6 0 1,1 0,-6A6,6 0 0,1 6,0Z" style="opacity: 1; stroke-width: 0px; fill: rgb(156, 202, 225); fill-opacity: 1;"/><path class="point plotly-customdata" transform="translate(252.43,463.32)" d="M6,0A6,6 0 1,1 0,-6A6,6 0 0,1 6,0Z" style="opacity: 1; stroke-width: 0px; fill: rgb(125, 184, 215); fill-opacity: 1;"/><path class="point plotly-customdata" transform="translate(196.77,464.19)" d="M6,0A6,6 0 1,1 0,-6A6,6 0 0,1 6,0Z" style="opacity: 1; stroke-width: 0px; fill: rgb(67, 147, 195); fill-opacity: 1;"/><path class="point plotly-customdata" transform="translate(194.27,474.67)" d="M6,0A6,6 0 1,1 0,-6A6,6 0 0,1 6,0Z" style="opacity: 1; stroke-width: 0px; fill: rgb(142, 194, 221); fill-opacity: 1;"/><path class="point plotly-customdata" transform="translate(184.71,467.69)" d="M6,0A6,6 0 1,1 0,-6A6,6 0 0,1 6,0Z" style="opacity: 1; stroke-width: 0px; fill: rgb(109, 173, 209); fill-opacity: 1;"/><path class="point plotly-customdata" transform="translate(140.17,474.67)" d="M6,0A6,6 0 1,1 0,-6A6,6 0 0,1 6,0Z" style="opacity: 1; stroke-width: 0px; fill: rgb(117, 179, 212); fill-opacity: 1;"/><path class="point plotly-customdata" transform="translate(113.74,481.66)" d="M6,0A6,6 0 1,1 0,-6A6,6 0 0,1 6,0Z" style="opacity: 1; stroke-width: 0px; fill: rgb(134, 189, 218); fill-opacity: 1;"/><path class="point plotly-customdata" transform="translate(79.5,472.05)" d="M6,0A6,6 0 1,1 0,-6A6,6 0 0,1 6,0Z" style="opacity: 1; stroke-width: 0px; fill: rgb(53, 128, 185); fill-opacity: 1;"/></g><g class="text"/></g><g class="trace scatter trace37f30d" style="stroke-miterlimit: 2; opacity: 1;"><g class="fills"/><g class="errorbars"/><g class="lines"><path class="js-line" d="M1360.5,344.15L79.5,513" style="vector-effect: non-scaling-stroke; fill: none; stroke: rgb(0, 0, 0); stroke-opacity: 1; stroke-width: 6px; opacity: 1;"/></g><g class="points"/><g class="text"/></g></g></g><g class="overplot"/><path class="xlines-above crisp" d="M0,0" style="fill: none;"/><path class="ylines-above crisp" d="M0,0" style="fill: none;"/><g class="overlines-above"/><g class="xaxislayer-above"><g class="xtick"><text text-anchor="middle" x="0" y="657" transform="translate(191.07999999999998,0)" style="font-family: Inter; font-size: 16px; fill: rgb(42, 63, 95); fill-opacity: 1; white-space: pre; opacity: 1;">12</text></g><g class="xtick"><text text-anchor="middle" x="0" y="657" style="font-family: Inter; font-size: 16px; fill: rgb(42, 63, 95); fill-opacity: 1; white-space: pre; opacity: 1;" transform="translate(432.58,0)">13</text></g><g class="xtick"><text text-anchor="middle" x="0" y="657" style="font-family: Inter; font-size: 16px; fill: rgb(42, 63, 95); fill-opacity: 1; white-space: pre; opacity: 1;" transform="translate(674.08,0)">14</text></g><g class="xtick"><text text-anchor="middle" x="0" y="657" style="font-family: Inter; font-size: 16px; fill: rgb(42, 63, 95); fill-opacity: 1; white-space: pre; opacity: 1;" transform="translate(915.58,0)">15</text></g><g class="xtick"><text text-anchor="middle" x="0" y="657" style="font-family: Inter; font-size: 16px; fill: rgb(42, 63, 95); fill-opacity: 1; white-space: pre; opacity: 1;" transform="translate(1157.09,0)">16</text></g><g class="xtick"><text text-anchor="middle" x="0" y="657" style="font-family: Inter; font-size: 16px; fill: rgb(42, 63, 95); fill-opacity: 1; white-space: pre; opacity: 1;" transform="translate(1398.59,0)">17</text></g></g><g class="yaxislayer-above"><g class="ytick"><text text-anchor="end" x="79" y="5.6" transform="translate(0,581.6600000000001)" style="font-family: Inter; font-size: 16px; fill: rgb(42, 63, 95); fill-opacity: 1; white-space: pre; opacity: 1;">0</text></g><g class="ytick"><text text-anchor="end" x="79" y="5.6" style="font-family: Inter; font-size: 16px; fill: rgb(42, 63, 95); fill-opacity: 1; white-space: pre; opacity: 1;" transform="translate(0,494.32)">100</text></g><g class="ytick"><text text-anchor="end" x="79" y="5.6" style="font-family: Inter; font-size: 16px; fill: rgb(42, 63, 95); fill-opacity: 1; white-space: pre; opacity: 1;" transform="translate(0,406.99)">200</text></g><g class="ytick"><text text-anchor="end" x="79" y="5.6" style="font-family: Inter; font-size: 16px; fill: rgb(42, 63, 95); fill-opacity: 1; white-space: pre; opacity: 1;" transform="translate(0,319.65)">300</text></g><g class="ytick"><text text-anchor="end" x="79" y="5.6" style="font-family: Inter; font-size: 16px; fill: rgb(42, 63, 95); fill-opacity: 1; white-space: pre; opacity: 1;" transform="translate(0,232.32)">400</text></g><g class="ytick"><text text-anchor="end" x="79" y="5.6" style="font-family: Inter; font-size: 16px; fill: rgb(42, 63, 95); fill-opacity: 1; white-space: pre; opacity: 1;" transform="translate(0,144.98)">500</text></g></g><g class="overaxes-above"/></g></g><g class="polarlayer"/><g class="smithlayer"/><g class="ternarylayer"/><g class="geolayer"/><g class="funnelarealayer"/><g class="pielayer"/><g class="iciclelayer"/><g class="treemaplayer"/><g class="sunburstlayer"/><g class="glimages"/><defs id="topdefs-5c4d50"><g class="clips"/></defs><g class="layer-above"><g class="imagelayer"/><g class="shapelayer"/></g><g class="infolayer"><g class="g-gtitle"><text class="gtitle" x="80" y="50" text-anchor="start" dy="0em" style="font-family: Inter; font-size: 22px; fill: rgb(42, 63, 95); opacity: 1; font-weight: normal; white-space: pre;">NIH Funding vs. Abstract Count: Overperformers and Underperformers</text></g><g class="g-xtitle"><text class="xtitle" x="800" y="689.3" text-anchor="middle" style="font-family: Inter; font-size: 19px; fill: rgb(42, 63, 95); opacity: 1; font-weight: normal; white-space: pre;">log_average_funding</text></g><g class="g-ytitle"><text class="ytitle" transform="rotate(-90,20.418750000000003,370)" x="20.418750000000003" y="370" text-anchor="middle" style="font-family: Inter; font-size: 19px; fill: rgb(42, 63, 95); opacity: 1; font-weight: normal; white-space: pre;">Abstract Count (2016-2023)</text></g></g></svg>